<?xml version="1.0" standalone="no"?>
<!DOCTYPE svg PUBLIC "-//W3C//DTD SVG 20010904//EN"
 "http://www.w3.org/TR/2001/REC-SVG-20010904/DTD/svg10.dtd">
<svg version="1.0" xmlns="http://www.w3.org/2000/svg"
 width="482.000000pt" height="482.000000pt" viewBox="0 0 482.000000 482.000000"
 preserveAspectRatio="xMidYMid meet">
<metadata>
Created by potrace 1.11, written by Peter Selinger 2001-2013
</metadata>
<g transform="translate(0.000000,482.000000) scale(0.100000,-0.100000)"
fill="#000000" stroke="none">
<path d="M2239 4816 c-2 -2 -35 -6 -74 -10 -38 -3 -79 -7 -90 -10 -11 -2 -42
-7 -68 -10 -63 -10 -71 -11 -142 -29 -33 -9 -71 -18 -85 -21 -33 -6 -235 -74
-280 -94 -96 -42 -261 -124 -305 -151 -27 -17 -57 -34 -65 -38 -8 -4 -19 -11
-25 -15 -5 -4 -52 -38 -104 -74 -51 -37 -101 -74 -111 -83 -9 -9 -40 -36 -69
-61 -69 -59 -158 -147 -218 -217 -26 -31 -55 -63 -63 -73 -8 -10 -26 -32 -40
-50 -14 -19 -36 -46 -48 -62 -13 -15 -21 -28 -18 -28 3 0 -12 -23 -33 -51 -21
-28 -49 -72 -61 -97 -13 -26 -27 -49 -31 -52 -10 -7 -108 -213 -143 -300 -29
-74 -82 -240 -91 -285 -8 -39 -13 -60 -15 -60 -1 0 -3 -9 -4 -20 -2 -11 -9
-49 -16 -85 -29 -151 -38 -270 -34 -470 2 -113 5 -216 8 -230 2 -14 7 -47 11
-75 8 -56 10 -68 25 -140 6 -27 12 -59 14 -70 2 -11 9 -40 16 -65 7 -25 12
-46 11 -47 0 -2 6 -18 15 -38 8 -19 14 -36 13 -37 0 -3 3 -14 23 -73 10 -31
12 -36 50 -125 101 -240 270 -504 442 -689 103 -109 269 -261 287 -261 5 0 9
-3 9 -7 0 -5 17 -19 37 -33 20 -14 41 -30 47 -35 6 -6 29 -22 51 -35 22 -13
42 -27 45 -30 9 -11 125 -76 215 -121 105 -53 242 -109 352 -145 100 -32 94
-31 248 -63 192 -40 260 -46 495 -45 176 0 253 4 345 20 17 3 41 7 55 9 165
25 548 145 572 180 4 5 8 6 8 2 0 -16 315 158 369 205 11 9 22 14 25 11 3 -3
8 2 12 11 3 9 11 16 16 16 13 0 168 127 248 204 72 69 141 144 209 224 49 58
49 58 141 198 87 134 82 125 143 244 131 260 213 539 244 835 15 139 7 521
-12 585 -2 8 -6 33 -9 55 -5 44 -7 57 -31 160 -42 180 -124 398 -211 563 -55
106 -192 320 -229 358 -11 12 -29 33 -39 48 -65 91 -239 261 -376 368 -41 33
-83 66 -93 74 -10 8 -29 20 -43 26 -13 6 -24 15 -24 20 0 4 -7 8 -15 8 -8 0
-15 5 -15 10 0 6 -6 10 -14 10 -8 0 -16 3 -18 8 -1 4 -19 15 -38 26 -179 96
-229 120 -320 157 -98 38 -205 76 -240 84 -8 2 -16 4 -17 5 -2 2 -6 3 -10 4
-15 4 -69 16 -93 22 -39 9 -220 42 -270 49 -47 6 -445 16 -451 11z"/>
</g>
</svg>
